<svg xmlns="http://www.w3.org/2000/svg" width="92.853" height="19.865" viewBox="0 0 92.853 19.865">
  <g id="Group_228" data-name="Group 228" transform="translate(-82 289)">
    <rect id="Rectangle_49" data-name="Rectangle 49" width="5.509" height="18.284" rx="2.754" transform="translate(87.985 -287.619) rotate(-9.643)" fill="#a6281c"/>
    <rect id="Rectangle_50" data-name="Rectangle 50" width="5.509" height="18.284" rx="2.754" transform="translate(95.657 -287.619) rotate(-9.643)" fill="#a6281c"/>
    <rect id="Rectangle_51" data-name="Rectangle 51" width="19.281" height="5.509" rx="2.754" transform="translate(82 -271.356) rotate(-66.225)" fill="#f29544"/>
    <rect id="Rectangle_52" data-name="Rectangle 52" width="19.281" height="5.509" rx="2.754" transform="translate(89.653 -271.356) rotate(-66.225)" fill="#f29544"/>
    <rect id="Rectangle_53" data-name="Rectangle 53" width="19.281" height="5.509" rx="2.754" transform="translate(97.317 -271.356) rotate(-66.225)" fill="#f29544"/>
    <g id="Group_6" data-name="Group 6" transform="translate(113.289 -282.767)">
      <path id="Path_9" data-name="Path 9" d="M100.01,18.136a.183.183,0,0,1,.194-.182h.137a.223.223,0,0,1,.228.148l2.258,4.87c.182.388.388.9.388.9h.023s.205-.513.388-.9l2.258-4.87a.223.223,0,0,1,.228-.148h.137a.183.183,0,0,1,.194.182l.616,7.6c0,.137-.057.205-.194.205h-.1a.183.183,0,0,1-.194-.183l-.479-5.908c-.034-.388-.034-1.061-.034-1.061h-.023s-.228.673-.411,1.061l-2.076,4.4a.224.224,0,0,1-.228.148h-.182a.224.224,0,0,1-.228-.148l-2.064-4.4c-.171-.376-.422-1.083-.422-1.083H100.4s0,.7-.034,1.083l-.479,5.908a.183.183,0,0,1-.194.183h-.1c-.137,0-.194-.069-.194-.205Z" transform="translate(-99.394 -17.817)" fill="#1a1818"/>
      <path id="Path_10" data-name="Path 10" d="M130.985,18.114a.207.207,0,0,1,.217-.16h.205a.207.207,0,0,1,.217.16l2.851,7.6c.046.137-.011.228-.16.228h-.125a.209.209,0,0,1-.217-.148l-.981-2.612H129.6l-.97,2.6a.207.207,0,0,1-.217.159h-.125c-.148,0-.205-.091-.16-.228Zm1.837,4.608-1.209-3.239c-.125-.342-.3-.958-.3-.958h-.023s-.171.616-.3.958l-1.22,3.239Z" transform="translate(-119.329 -17.817)" fill="#1a1818"/>
      <path id="Path_11" data-name="Path 11" d="M151.463,22.471l-2.578-4.289c-.08-.125-.023-.228.137-.228h.137a.262.262,0,0,1,.228.125L151.2,21.1c.228.388.49.9.49.9h.023s.251-.513.49-.9l1.814-3.023a.263.263,0,0,1,.228-.125h.137c.159,0,.217.1.137.228l-2.566,4.289v3.273a.175.175,0,0,1-.194.194h-.1a.175.175,0,0,1-.194-.194Z" transform="translate(-133.717 -17.817)" fill="#1a1818"/>
      <path id="Path_12" data-name="Path 12" d="M172.187,18.148a.175.175,0,0,1,.194-.194h.114a.27.27,0,0,1,.24.125l4.46,6.136c.263.365.65,1,.65,1h.023s-.057-.6-.057-1V18.148a.175.175,0,0,1,.194-.194h.1a.174.174,0,0,1,.194.194v7.6a.174.174,0,0,1-.194.194h-.114a.27.27,0,0,1-.24-.125l-4.46-6.137c-.262-.365-.65-1-.65-1h-.023s.057.6.057,1v6.068a.174.174,0,0,1-.194.194h-.1a.175.175,0,0,1-.194-.194Z" transform="translate(-149.914 -17.817)" fill="#1a1818"/>
      <path id="Path_13" data-name="Path 13" d="M202.166,17.507a3.988,3.988,0,0,1,4.038,4.072,4.041,4.041,0,1,1-8.076,0A3.989,3.989,0,0,1,202.166,17.507Zm0,7.79a3.552,3.552,0,0,0,3.524-3.718,3.525,3.525,0,1,0-7.049,0A3.552,3.552,0,0,0,202.166,25.3Z" transform="translate(-167.917 -17.507)" fill="#1a1818"/>
      <path id="Path_14" data-name="Path 14" d="M232.656,17.507a3.988,3.988,0,0,1,4.037,4.072,4.04,4.04,0,1,1-8.075,0A3.988,3.988,0,0,1,232.656,17.507Zm0,7.79a3.552,3.552,0,0,0,3.524-3.718,3.526,3.526,0,1,0-7.049,0A3.552,3.552,0,0,0,232.656,25.3Z" transform="translate(-189.078 -17.507)" fill="#1a1818"/>
      <path id="Path_15" data-name="Path 15" d="M258.617,18.41h-2.783a.174.174,0,0,1-.194-.194v-.069a.175.175,0,0,1,.194-.194h6.057a.174.174,0,0,1,.194.194v.069a.174.174,0,0,1-.194.194h-2.783v7.334a.175.175,0,0,1-.194.194h-.1a.175.175,0,0,1-.194-.194Z" transform="translate(-207.831 -17.817)" fill="#1a1818"/>
      <path id="Path_16" data-name="Path 16" d="M280.837,18.148a.175.175,0,0,1,.194-.194h.1a.175.175,0,0,1,.194.194v3.559h5.064V18.148a.175.175,0,0,1,.194-.194h.1a.175.175,0,0,1,.194.194v7.6a.175.175,0,0,1-.194.194h-.1a.175.175,0,0,1-.194-.194V22.163h-5.064v3.582a.175.175,0,0,1-.194.194h-.1a.175.175,0,0,1-.194-.194Z" transform="translate(-225.318 -17.817)" fill="#1a1818"/>
    </g>
  </g>
</svg>
