<svg width="24" height="24" viewBox="0 0 24 24" fill="none" xmlns="http://www.w3.org/2000/svg">
<path d="M12 21C16.9706 21 21 16.9706 21 12C21 7.02944 16.9706 3 12 3C7.02944 3 3 7.02944 3 12C3 16.9706 7.02944 21 12 21Z" fill="#41C946"/>
<path d="M10.5731 16.153C10.4079 16.1542 10.248 16.0944 10.1241 15.985L6.72712 12.911C6.66872 12.8606 6.62187 12.7982 6.58975 12.728C6.55764 12.6579 6.54102 12.5817 6.54102 12.5045C6.54102 12.4274 6.55764 12.3511 6.58975 12.281C6.62187 12.2108 6.66872 12.1484 6.72712 12.098C6.85175 11.9891 7.01163 11.9291 7.17712 11.9291C7.34261 11.9291 7.50249 11.9891 7.62712 12.098L10.5471 14.74L16.3881 8.82001C16.5071 8.70459 16.6639 8.63631 16.8295 8.62785C16.995 8.61938 17.158 8.67133 17.2881 8.77401C17.3496 8.82068 17.4003 8.88003 17.4368 8.94804C17.4733 9.01604 17.4948 9.0911 17.4997 9.16813C17.5046 9.24515 17.4929 9.32234 17.4654 9.39444C17.4379 9.46654 17.3951 9.53188 17.3401 9.58601L11.0471 15.96C10.9254 16.0802 10.7621 16.1489 10.5911 16.152L10.5731 16.153Z" fill="#F8F8F8"/>
</svg>
