<svg width="32" height="32" viewBox="0 0 32 32" fill="none" xmlns="http://www.w3.org/2000/svg">
<path d="M23.4666 1.06689H8.53325C6.76594 1.06689 5.33325 2.49958 5.33325 4.26689V27.7336C5.33325 29.5009 6.76594 30.9336 8.53325 30.9336H23.4666C25.2339 30.9336 26.6666 29.5009 26.6666 27.7336V4.26689C26.6666 2.49958 25.2339 1.06689 23.4666 1.06689Z" fill="#F8F8F8"/>
<path d="M13.8667 16C13.8667 15.5781 13.9918 15.1656 14.2262 14.8148C14.4606 14.464 14.7938 14.1906 15.1836 14.0291C15.5735 13.8676 16.0024 13.8254 16.4162 13.9077C16.8301 13.99 17.2102 14.1932 17.5085 14.4915C17.8069 14.7899 18.0101 15.17 18.0924 15.5838C18.1747 15.9977 18.1324 16.4266 17.971 16.8164C17.8095 17.2062 17.5361 17.5394 17.1852 17.7738C16.8344 18.0082 16.422 18.1334 16 18.1334C15.4342 18.1334 14.8916 17.9086 14.4915 17.5085C14.0915 17.1085 13.8667 16.5658 13.8667 16Z" fill="#9D9D9D"/>
<path d="M13.8667 22.3999C13.8667 21.978 13.9918 21.5655 14.2262 21.2147C14.4606 20.8639 14.7938 20.5905 15.1836 20.429C15.5735 20.2675 16.0024 20.2253 16.4162 20.3076C16.8301 20.3899 17.2102 20.5931 17.5085 20.8914C17.8069 21.1898 18.0101 21.5699 18.0924 21.9837C18.1747 22.3976 18.1324 22.8265 17.971 23.2163C17.8095 23.6061 17.5361 23.9393 17.1852 24.1737C16.8344 24.4082 16.422 24.5333 16 24.5333C15.4342 24.5333 14.8916 24.3085 14.4915 23.9084C14.0915 23.5084 13.8667 22.9657 13.8667 22.3999Z" fill="#9D9D9D"/>
<path d="M13.8667 9.60013C13.8667 9.1782 13.9918 8.76574 14.2262 8.41491C14.4606 8.06409 14.7938 7.79066 15.1836 7.62919C15.5735 7.46772 16.0024 7.42547 16.4162 7.50779C16.8301 7.5901 17.2102 7.79328 17.5085 8.09164C17.8069 8.38999 18.0101 8.77011 18.0924 9.18394C18.1747 9.59776 18.1324 10.0267 17.971 10.4165C17.8095 10.8063 17.5361 11.1395 17.1852 11.3739C16.8344 11.6083 16.422 11.7335 16 11.7335C15.4342 11.7335 14.8916 11.5087 14.4915 11.1086C14.0915 10.7085 13.8667 10.1659 13.8667 9.60013Z" fill="#9D9D9D"/>
</svg>
