<svg width="32" height="32" viewBox="0 0 32 32" fill="none" xmlns="http://www.w3.org/2000/svg">
<path d="M28.3429 0H3.65714C1.63736 0 0 1.63736 0 3.65714V28.3429C0 30.3626 1.63736 32 3.65714 32H28.3429C30.3626 32 32 30.3626 32 28.3429V3.65714C32 1.63736 30.3626 0 28.3429 0Z" fill="#FFF8DE"/>
<path d="M5.74072 12.5806V10.8708C5.74096 10.4175 5.92117 9.98274 6.24175 9.66216C6.56234 9.34158 6.99707 9.16138 7.45044 9.16113H22.8379C23.2912 9.16138 23.726 9.34158 24.0466 9.66216C24.3671 9.98274 24.5473 10.4175 24.5476 10.8708V12.5806H5.74072ZM26.2582 18.9924C26.2582 19.7534 26.0326 20.4972 25.6098 21.1299C25.1871 21.7626 24.5862 22.2557 23.8832 22.5469C23.1802 22.8381 22.4066 22.9143 21.6603 22.7658C20.914 22.6174 20.2285 22.251 19.6904 21.7129C19.1524 21.1749 18.786 20.4893 18.6375 19.743C18.4891 18.9967 18.5652 18.2231 18.8564 17.5201C19.1476 16.8171 19.6408 16.2163 20.2734 15.7935C20.9061 15.3708 21.65 15.1451 22.4109 15.1451C23.4313 15.1451 24.4098 15.5505 25.1314 16.272C25.8529 16.9935 26.2582 17.9721 26.2582 18.9924ZM24.415 18.2382L23.8198 17.643L22.015 19.498L21.1675 18.6944L20.5723 19.2905L22.015 20.6894L24.4178 18.2382H24.415ZM16.8539 18.9924C16.8534 20.4279 17.4107 21.8074 18.4082 22.8398H7.45044C6.99707 22.8395 6.56234 22.6593 6.24175 22.3387C5.92117 22.0181 5.74096 21.5834 5.74072 21.13V15.1451H18.41C17.4122 16.1773 16.8545 17.5568 16.8548 18.9924H16.8539ZM12.5796 19.4203H8.30529V20.2752H12.5796V19.4203ZM15.1442 17.7106H8.30529V18.5655H15.1442V17.7106Z" fill="#FF8900"/>
</svg>
