<svg width="24" height="24" viewBox="0 0 24 24" fill="none" xmlns="http://www.w3.org/2000/svg">
<path d="M18.0978 13.4092L9.25879 12.0245L10.4305 17.2919L18.0978 13.4092Z" fill="#D12053"/>
<path d="M18.0987 13.409L11.4389 4.15485L9.26074 12.0253L18.0987 13.409Z" fill="#E2136E"/>
<path d="M9.05352 11.9197L2.07471 3L11.2151 4.09199L9.05352 11.9197Z" fill="#D12053"/>
<path d="M5.87495 8.19609L2 4.53992H3.02003L5.87495 8.19609Z" fill="#9E1638"/>
<path d="M19.984 8.91113L18.3436 13.3598L15.6851 9.68321L19.984 8.91113Z" fill="#D12053"/>
<path d="M11.4624 17.0207L17.8976 14.4351L18.168 13.6135L11.4624 17.0207Z" fill="#E2136E"/>
<path d="M6.31543 21.9041L9.07214 12.2327L10.4704 18.525L6.31543 21.9041Z" fill="#9E1638"/>
<path d="M20.2402 8.94611L19.5596 10.7829L22.0003 10.7431L20.2402 8.94611Z" fill="#E2136E"/>
</svg>
