<svg width="24" height="24" viewBox="0 0 24 24" fill="none" xmlns="http://www.w3.org/2000/svg">
<path d="M18.619 10.2306C18.5981 8.57094 17.9242 6.98637 16.7432 5.82016C15.5622 4.65394 13.9693 4 12.3095 4C10.6497 4 9.05682 4.65394 7.87583 5.82016C6.69484 6.98637 6.02089 8.57094 6 10.2306C6 13.6756 12.31 20.1076 12.31 20.1076C12.31 20.1076 18.619 13.6746 18.619 10.2306ZM9.371 10.1116C9.36326 9.52865 9.52906 8.95659 9.84731 8.46815C10.1656 7.97971 10.6219 7.59695 11.1582 7.36854C11.6946 7.14013 12.2868 7.07639 12.8595 7.18543C13.4321 7.29447 13.9595 7.57137 14.3744 7.9809C14.7893 8.39043 15.073 8.9141 15.1895 9.48531C15.306 10.0565 15.2499 10.6495 15.0285 11.1888C14.8071 11.7281 14.4303 12.1893 13.9461 12.5139C13.4618 12.8385 12.892 13.0117 12.309 13.0116C11.5362 13.0122 10.7943 12.708 10.2443 12.1651C9.69426 11.6222 9.38048 10.8843 9.371 10.1116Z" fill="#A0A49D"/>
</svg>
