<svg width="24" height="24" viewBox="0 0 24 24" fill="none" xmlns="http://www.w3.org/2000/svg">
<path d="M19.6962 16.2683L16.7792 14.1363C16.6238 14.0227 16.4332 13.968 16.2412 13.9819C16.0493 13.9958 15.8685 14.0775 15.7312 14.2123L14.1732 15.7423L14.1682 15.7473C14.0372 15.8739 13.8616 15.9437 13.6794 15.9417C13.4973 15.9396 13.3233 15.8658 13.1952 15.7363L10.5022 13.0433L8.29019 10.8323C8.16065 10.7042 8.08685 10.5302 8.08479 10.348C8.08273 10.1659 8.15258 9.99025 8.27919 9.85926L8.28519 9.85326L9.81519 8.29526C9.94999 8.15792 10.0316 7.97716 10.0456 7.78521C10.0595 7.59327 10.0048 7.40262 9.89119 7.24726L7.75919 4.33126C7.69002 4.23711 7.60135 4.15899 7.49923 4.10224C7.39711 4.04549 7.28395 4.01144 7.16747 4.00242C7.05099 3.9934 6.93394 4.00963 6.8243 4.04998C6.71466 4.09034 6.61502 4.15388 6.53219 4.23626L5.43219 5.33626C5.36552 5.40293 5.29885 5.47493 5.23219 5.55226C4.92942 5.89737 4.66146 6.27152 4.43219 6.66926C4.05044 7.47458 3.91733 8.37538 4.04985 9.25669C4.18237 10.138 4.5745 10.9598 5.17619 11.6173L12.4102 18.8533C13.0676 19.455 13.8895 19.8471 14.7708 19.9796C15.6521 20.1121 16.5529 19.979 17.3582 19.5973C17.7559 19.368 18.1301 19.1 18.4752 18.7973C18.5499 18.7339 18.6219 18.6673 18.6912 18.5973L19.7912 17.4973C19.8739 17.4144 19.9378 17.3146 19.9783 17.2048C20.0189 17.095 20.0352 16.9777 20.0262 16.8609C20.0172 16.7442 19.983 16.6308 19.926 16.5285C19.8691 16.4262 19.7907 16.3374 19.6962 16.2683Z" fill="#A0A49D"/>
</svg>
