<svg xmlns="http://www.w3.org/2000/svg" width="15.196" height="14.444" viewBox="0 0 15.196 14.444">
  <g id="home-run_1_" data-name="home-run (1)" transform="translate(0 -12.676)">
    <g id="Group_216" data-name="Group 216" transform="translate(0 12.675)">
      <g id="Group_215" data-name="Group 215" transform="translate(0)">
        <path id="Path_260" data-name="Path 260" d="M14.941,19.093,8.123,12.88a.776.776,0,0,0-1.05,0L.255,19.093A.779.779,0,0,0,.78,20.448H1.869v6.225a.447.447,0,0,0,.447.447H6.053a.447.447,0,0,0,.447-.447V22.893H8.7v3.779a.447.447,0,0,0,.447.447H12.88a.447.447,0,0,0,.447-.447V20.448h1.089a.779.779,0,0,0,.525-1.355Z" transform="translate(0 -12.675)" fill="#f29544"/>
      </g>
    </g>
    <g id="Group_218" data-name="Group 218" transform="translate(10.209 13.568)">
      <g id="Group_217" data-name="Group 217" transform="translate(0 0)">
        <path id="Path_261" data-name="Path 261" d="M346.974,42.73h-3l3.448,3.135V43.177A.447.447,0,0,0,346.974,42.73Z" transform="translate(-343.973 -42.73)" fill="#f29544"/>
      </g>
    </g>
  </g>
</svg>
