<svg width="41" height="40" viewBox="0 0 41 40" fill="none" xmlns="http://www.w3.org/2000/svg">
<circle cx="20.3828" cy="20" r="20" fill="#FFF5F3"/>
<path fill-rule="evenodd" clip-rule="evenodd" d="M29.8884 23.8937H25.8404C23.9434 23.8937 22.3994 22.3507 22.3984 20.4547C22.3984 18.5567 23.9424 17.0127 25.8404 17.0117H29.8884C30.3024 17.0117 30.6384 17.3477 30.6384 17.7617C30.6384 18.1757 30.3024 18.5117 29.8884 18.5117H25.8404C24.7694 18.5127 23.8984 19.3837 23.8984 20.4537C23.8984 21.5227 24.7704 22.3937 25.8404 22.3937H29.8884C30.3024 22.3937 30.6384 22.7297 30.6384 23.1437C30.6384 23.5577 30.3024 23.8937 29.8884 23.8937Z" fill="url(#paint0_linear_1317_5269)"/>
<path fill-rule="evenodd" clip-rule="evenodd" d="M26.2983 21.1445H25.9863C25.5723 21.1445 25.2363 20.8085 25.2363 20.3945C25.2363 19.9805 25.5723 19.6445 25.9863 19.6445H26.2983C26.7123 19.6445 27.0483 19.9805 27.0483 20.3945C27.0483 20.8085 26.7123 21.1445 26.2983 21.1445Z" fill="url(#paint1_linear_1317_5269)"/>
<mask id="mask0_1317_5269" style="mask-type:luminance" maskUnits="userSpaceOnUse" x="10" y="11" width="21" height="20">
<path fill-rule="evenodd" clip-rule="evenodd" d="M10 11H30.6386V30.1729H10V11Z" fill="white"/>
</mask>
<g mask="url(#mask0_1317_5269)">
<path fill-rule="evenodd" clip-rule="evenodd" d="M15.998 12.5C13.518 12.5 11.5 14.518 11.5 16.998V24.175C11.5 26.655 13.518 28.673 15.998 28.673H24.642C27.122 28.673 29.139 26.655 29.139 24.175V16.998C29.139 14.518 27.122 12.5 24.642 12.5H15.998ZM24.642 30.173H15.998C12.691 30.173 10 27.482 10 24.175V16.998C10 13.69 12.691 11 15.998 11H24.642C27.949 11 30.639 13.69 30.639 16.998V24.175C30.639 27.482 27.949 30.173 24.642 30.173Z" fill="url(#paint2_linear_1317_5269)"/>
</g>
<path fill-rule="evenodd" clip-rule="evenodd" d="M20.6842 17.0391H15.2852C14.8712 17.0391 14.5352 16.7031 14.5352 16.2891C14.5352 15.8751 14.8712 15.5391 15.2852 15.5391H20.6842C21.0982 15.5391 21.4342 15.8751 21.4342 16.2891C21.4342 16.7031 21.0982 17.0391 20.6842 17.0391Z" fill="url(#paint3_linear_1317_5269)"/>
<defs>
<linearGradient id="paint0_linear_1317_5269" x1="30.6384" y1="20.4527" x2="22.3984" y2="20.4527" gradientUnits="userSpaceOnUse">
<stop stop-color="#F5845F"/>
<stop offset="1" stop-color="#F05C77"/>
</linearGradient>
<linearGradient id="paint1_linear_1317_5269" x1="27.0483" y1="20.3945" x2="25.2363" y2="20.3945" gradientUnits="userSpaceOnUse">
<stop stop-color="#F5845F"/>
<stop offset="1" stop-color="#F05C77"/>
</linearGradient>
<linearGradient id="paint2_linear_1317_5269" x1="30.639" y1="20.5865" x2="10" y2="20.5865" gradientUnits="userSpaceOnUse">
<stop stop-color="#F5845F"/>
<stop offset="1" stop-color="#F05C77"/>
</linearGradient>
<linearGradient id="paint3_linear_1317_5269" x1="21.4342" y1="16.2891" x2="14.5352" y2="16.2891" gradientUnits="userSpaceOnUse">
<stop stop-color="#F5845F"/>
<stop offset="1" stop-color="#F05C77"/>
</linearGradient>
</defs>
</svg>
