<svg width="244" height="248" viewBox="0 0 244 248" fill="none" xmlns="http://www.w3.org/2000/svg">
<circle cx="125.083" cy="119.425" r="84.8035" fill="url(#paint0_linear_1231_14044)"/>
<path fill-rule="evenodd" clip-rule="evenodd" d="M103.789 88.5898C99.3708 88.5898 95.7891 92.1716 95.7891 96.5898V143.807C95.7891 148.225 99.3708 151.807 103.789 151.807H151.006C155.424 151.807 159.006 148.225 159.006 143.807V96.5898C159.006 92.1716 155.424 88.5898 151.006 88.5898H103.789ZM143.681 111.809C144.133 111.358 144.359 110.766 144.359 110.174C144.359 108.852 143.282 107.862 142.046 107.862C141.453 107.862 140.86 108.088 140.412 108.541L123.543 125.41L115.927 117.79C115.476 117.339 114.884 117.113 114.292 117.113C113.06 117.113 111.979 118.104 111.979 119.426C111.979 120.018 112.205 120.611 112.657 121.061L121.908 130.312C122.359 130.764 122.95 130.99 123.543 130.99C124.136 130.99 124.728 130.766 125.178 130.312L143.681 111.809Z" fill="white"/>
<circle cx="26.4025" cy="37.7033" r="10.7932" fill="url(#paint1_linear_1231_14044)"/>
<circle cx="235.328" cy="80.1053" r="8.48035" fill="url(#paint2_linear_1231_14044)"/>
<circle cx="157.464" cy="5.32486" r="4.62564" fill="url(#paint3_linear_1231_14044)"/>
<circle cx="239.182" cy="151.801" r="4.62564" fill="url(#paint4_linear_1231_14044)"/>
<circle cx="212.969" cy="199.602" r="4.62564" fill="url(#paint5_linear_1231_14044)"/>
<circle cx="86.5367" cy="228.898" r="6.16752" fill="url(#paint6_linear_1231_14044)"/>
<circle cx="7.90081" cy="174.928" r="7.7094" fill="url(#paint7_linear_1231_14044)"/>
<circle cx="165.944" cy="245.086" r="2.31282" fill="url(#paint8_linear_1231_14044)"/>
<defs>
<linearGradient id="paint0_linear_1231_14044" x1="209.886" y1="119.425" x2="40.2793" y2="119.425" gradientUnits="userSpaceOnUse">
<stop stop-color="#F5845F"/>
<stop offset="1" stop-color="#F05C77"/>
</linearGradient>
<linearGradient id="paint1_linear_1231_14044" x1="37.1957" y1="37.7033" x2="15.6094" y2="37.7033" gradientUnits="userSpaceOnUse">
<stop stop-color="#F5845F"/>
<stop offset="1" stop-color="#F05C77"/>
</linearGradient>
<linearGradient id="paint2_linear_1231_14044" x1="243.808" y1="80.1053" x2="226.848" y2="80.1053" gradientUnits="userSpaceOnUse">
<stop stop-color="#F5845F"/>
<stop offset="1" stop-color="#F05C77"/>
</linearGradient>
<linearGradient id="paint3_linear_1231_14044" x1="162.089" y1="5.32486" x2="152.838" y2="5.32486" gradientUnits="userSpaceOnUse">
<stop stop-color="#F5845F"/>
<stop offset="1" stop-color="#F05C77"/>
</linearGradient>
<linearGradient id="paint4_linear_1231_14044" x1="243.808" y1="151.801" x2="234.557" y2="151.801" gradientUnits="userSpaceOnUse">
<stop stop-color="#F5845F"/>
<stop offset="1" stop-color="#F05C77"/>
</linearGradient>
<linearGradient id="paint5_linear_1231_14044" x1="217.595" y1="199.602" x2="208.344" y2="199.602" gradientUnits="userSpaceOnUse">
<stop stop-color="#F5845F"/>
<stop offset="1" stop-color="#F05C77"/>
</linearGradient>
<linearGradient id="paint6_linear_1231_14044" x1="92.7042" y1="228.898" x2="80.3691" y2="228.898" gradientUnits="userSpaceOnUse">
<stop stop-color="#F5845F"/>
<stop offset="1" stop-color="#F05C77"/>
</linearGradient>
<linearGradient id="paint7_linear_1231_14044" x1="15.6102" y1="174.928" x2="0.191406" y2="174.928" gradientUnits="userSpaceOnUse">
<stop stop-color="#F5845F"/>
<stop offset="1" stop-color="#F05C77"/>
</linearGradient>
<linearGradient id="paint8_linear_1231_14044" x1="168.257" y1="245.086" x2="163.631" y2="245.086" gradientUnits="userSpaceOnUse">
<stop stop-color="#F5845F"/>
<stop offset="1" stop-color="#F05C77"/>
</linearGradient>
</defs>
</svg>
